<?xml version="1.0" standalone="no"?>
<!DOCTYPE svg PUBLIC "-//W3C//DTD SVG 20010904//EN"
 "http://www.w3.org/TR/2001/REC-SVG-20010904/DTD/svg10.dtd">
<svg version="1.0" xmlns="http://www.w3.org/2000/svg"
 width="600.000000pt" height="600.000000pt" viewBox="0 0 600.000000 600.000000"
 preserveAspectRatio="xMidYMid meet">

<g transform="translate(0.000000,600.000000) scale(0.100000,-0.100000)"
fill="#000000" stroke="none">
<path d="M4540 5275 c-194 -41 -463 -176 -559 -280 -61 -66 -92 -120 -155
-268 -31 -73 -72 -153 -91 -179 -79 -108 -236 -191 -590 -311 -137 -47 -335
-120 -440 -162 -262 -107 -347 -137 -600 -212 -132 -38 -320 -105 -469 -164
-267 -107 -300 -122 -251 -114 71 12 321 45 340 45 19 0 -181 -94 -570 -267
-281 -125 -561 -221 -700 -240 l-60 -8 100 -5 100 -5 -63 -29 c-70 -32 -68
-36 18 -56 l55 -13 -175 -57 c-175 -56 -398 -138 -413 -150 -4 -4 30 -15 77
-26 48 -10 86 -22 86 -27 0 -4 -18 -30 -40 -58 -22 -28 -40 -61 -40 -73 0 -58
85 -81 244 -66 140 14 224 32 506 110 341 94 413 106 554 91 79 -8 144 -23
226 -51 99 -34 414 -114 533 -135 20 -4 37 -11 37 -15 0 -4 -19 -20 -42 -35
l-43 -28 39 -11 39 -11 -57 -19 c-31 -11 -59 -23 -62 -28 -3 -4 23 -8 58 -9
35 0 83 -4 108 -7 l45 -7 -58 -24 c-32 -13 -56 -25 -55 -27 13 -12 159 -25
372 -34 137 -5 250 -11 252 -13 2 -1 -10 -43 -25 -93 -43 -136 -46 -179 -21
-255 43 -129 71 -179 110 -199 39 -20 97 -116 213 -354 l57 -119 -37 7 c-106
18 -151 18 -201 2 -71 -24 -77 -39 -14 -35 38 3 55 0 70 -14 12 -11 52 -23 99
-31 43 -7 101 -24 128 -37 42 -21 55 -34 80 -84 17 -33 62 -94 102 -136 39
-42 81 -95 92 -118 24 -46 64 -71 115 -71 25 0 39 -6 50 -22 42 -59 -5 55 -61
150 -24 40 -43 75 -43 79 0 18 147 -9 251 -48 62 -23 129 -46 148 -51 19 -6
43 -20 53 -31 l20 -22 -6 25 c-3 14 -6 31 -6 38 0 20 -177 130 -223 137 -36 7
-38 9 -21 19 12 7 84 11 201 11 100 0 184 3 187 6 3 3 -27 18 -67 34 -63 25
-88 29 -197 33 -71 3 -167 -1 -221 -8 -53 -7 -108 -10 -123 -6 -57 14 -194
167 -313 347 -64 98 -198 347 -191 354 7 8 181 25 249 25 37 0 111 -9 164 -20
98 -20 175 -23 275 -12 l55 7 -55 25 c-46 21 -68 25 -133 22 -81 -2 -117 8
-117 33 0 8 9 19 21 25 26 15 258 14 296 -1 l28 -10 -30 31 c-16 18 -39 36
-49 42 -25 14 -86 12 -167 -6 -37 -7 -78 -12 -92 -9 -32 6 -61 37 -54 58 9 22
66 54 110 61 39 7 48 18 21 28 -37 14 -72 4 -123 -34 -97 -73 -139 -52 -213
108 -21 46 -38 87 -38 91 0 3 21 17 48 31 26 13 90 66 142 117 57 55 113 100
141 112 25 11 104 30 175 41 212 35 307 82 652 327 289 204 326 259 392 588
17 83 49 202 71 265 22 63 59 167 81 230 36 101 42 129 47 235 4 82 12 129 23
150 49 91 182 193 303 233 33 11 112 25 175 32 126 13 544 10 573 -4 27 -13
22 23 -12 75 -68 108 -193 177 -591 326 -204 76 -223 85 -272 129 -27 24 -71
44 -179 79 -164 54 -267 65 -379 40z m437 -377 c33 -30 31 -80 -3 -107 -15
-12 -34 -21 -44 -21 -34 0 -70 39 -70 75 0 66 70 97 117 53z m-1846 -2833 c33
-119 24 -150 -50 -176 -39 -14 -42 -11 -33 26 5 15 5 51 2 78 -7 52 3 137 21
184 l11 28 14 -35 c9 -19 24 -66 35 -105z"/>
<path d="M4898 4889 c-37 -21 -10 -99 34 -99 23 0 48 33 48 63 0 39 -44 59
-82 36z m57 -29 c0 -22 -29 -18 -33 3 -3 14 1 18 15 15 10 -2 18 -10 18 -18z"/>
</g>
</svg>
